# xmcd
#
# Track frame offsets: 
#        150
#        12641
#        41739
#        56875
#        66494
#        89212
#        103672
#        122178
#        142132
#        164031
#        182929
#        198587
#        206925
#
# Disc length: 2888 seconds
#
# Revision: 0
# Processed by: cddbd v1.5.1PL0 Copyright (c) Steve Scherf et al.
# Submitted via: ExactAudioCopy v0.95b3
#
DISCID=e30b460d
DTITLE=Flying J Wranglers - White Mountain Christmas
DYEAR=2003
DGENRE=Christmas
TTITLE0=Yuletide Yodel
TTITLE1=Medley of Songs
TTITLE2=Mary Did You Know
TTITLE3=God Rest Ye Merry Gentlemen - We Three Kings
TTITLE4=O Holy Night
TTITLE5=Corn, Water And Wood
TTITLE6=Tonight's Christmas Eve
TTITLE7=Silent Night - Away in A Manger
TTITLE8=Grandma Got Run Over By A Reindeer
TTITLE9=Do You Hear What I Hear
TTITLE10=White Mountain Christmas
TTITLE11=Here Comes Santa Claus - Rudolph The Red Nose Reindeer
TTITLE12=Have Yourself A Merry Little Christmas
EXTD=
EXTT0=
EXTT1=
EXTT2=
EXTT3=
EXTT4=
EXTT5=
EXTT6=
EXTT7=
EXTT8=
EXTT9=
EXTT10=
EXTT11=
EXTT12=
PLAYORDER=
